<svg width="1200" height="675" viewBox="0 0 1200 675" fill="none" xmlns="http://www.w3.org/2000/svg" role="img" aria-labelledby="title desc">
  <title id="title">SecureGate sample project image</title>
  <desc id="desc">Dark campus access control dashboard illustration with license plate detection and vehicle status panels.</desc>
  <rect width="1200" height="675" fill="#07090D"/>
  <rect x="58" y="48" width="1084" height="579" rx="34" fill="#10151D" stroke="#263341" stroke-width="2"/>
  <rect x="92" y="92" width="1016" height="90" rx="22" fill="#151D27" stroke="#273749"/>
  <text x="128" y="145" fill="#E8F2F8" font-family="Inter, Arial, sans-serif" font-size="30" font-weight="800">SecureGate</text>
  <text x="128" y="169" fill="#91A6B6" font-family="Inter, Arial, sans-serif" font-size="16">Intelligent vehicle access control</text>
  <rect x="835" y="112" width="232" height="42" rx="21" fill="#09261D" stroke="#32D08D"/>
  <circle cx="864" cy="133" r="8" fill="#32D08D"/>
  <text x="884" y="140" fill="#D8FFEA" font-family="Inter, Arial, sans-serif" font-size="16" font-weight="700">YOLOv8 Online</text>
  <rect x="92" y="214" width="648" height="358" rx="26" fill="#0B1017" stroke="#273749"/>
  <path d="M139 520H693" stroke="#243241" stroke-width="4"/>
  <path d="M182 519L233 378H596L651 519H182Z" fill="#182434" stroke="#40546A" stroke-width="4"/>
  <path d="M255 386H574L542 293H286L255 386Z" fill="#1E3345" stroke="#68D7FF" stroke-width="4"/>
  <rect x="319" y="439" width="190" height="58" rx="10" fill="#F4F7EF"/>
  <text x="414" y="477" text-anchor="middle" fill="#151B21" font-family="Inter, Arial, sans-serif" font-size="28" font-weight="900">MH31AB1234</text>
  <rect x="303" y="422" width="222" height="92" rx="16" stroke="#32D08D" stroke-width="5" stroke-dasharray="14 12"/>
  <circle cx="252" cy="521" r="40" fill="#0A0E14" stroke="#3A4D60" stroke-width="8"/>
  <circle cx="584" cy="521" r="40" fill="#0A0E14" stroke="#3A4D60" stroke-width="8"/>
  <path d="M184 252H303" stroke="#32D08D" stroke-width="5" stroke-linecap="round"/>
  <path d="M184 252V333" stroke="#32D08D" stroke-width="5" stroke-linecap="round"/>
  <path d="M647 252H528" stroke="#32D08D" stroke-width="5" stroke-linecap="round"/>
  <path d="M647 252V333" stroke="#32D08D" stroke-width="5" stroke-linecap="round"/>
  <g font-family="Inter, Arial, sans-serif">
    <rect x="773" y="214" width="335" height="92" rx="22" fill="#151D27" stroke="#273749"/>
    <text x="801" y="249" fill="#EAF3F7" font-size="20" font-weight="800">Detection Pipeline</text>
    <text x="801" y="280" fill="#91A6B6" font-size="17">Kimi Vision -> EasyOCR -> Tesseract</text>
    <rect x="773" y="332" width="335" height="92" rx="22" fill="#151D27" stroke="#273749"/>
    <text x="801" y="367" fill="#EAF3F7" font-size="20" font-weight="800">Registry Match</text>
    <text x="801" y="398" fill="#91A6B6" font-size="17">SQLite vehicles + detection logs</text>
    <rect x="773" y="450" width="335" height="92" rx="22" fill="#2B1117" stroke="#F85A70"/>
    <text x="801" y="485" fill="#FFE5EA" font-size="20" font-weight="800">Flagged Vehicle</text>
    <text x="801" y="516" fill="#FFB4C0" font-size="17">Unregistered plate alert</text>
  </g>
  <path d="M740 393C759 393 759 393 773 393" stroke="#32D08D" stroke-width="4" stroke-linecap="round" stroke-dasharray="10 12"/>
  <rect x="140" y="233" width="156" height="44" rx="22" fill="#071E18" stroke="#32D08D"/>
  <text x="218" y="262" text-anchor="middle" fill="#D8FFEA" font-family="Inter, Arial, sans-serif" font-size="17" font-weight="800">Live Scan</text>
</svg>
